<?xml version="1.0" encoding="UTF-8"?><svg xmlns="http://www.w3.org/2000/svg" xmlns:xlink="http://www.w3.org/1999/xlink" height="60.5" preserveAspectRatio="xMidYMid meet" version="1.0" viewBox="0.0 0.0 59.8 60.5" width="59.8" zoomAndPan="magnify"><g id="change1_1"><path d="M11.9,5C11.9,5,11.9,5,11.9,5C11.9,5,11.9,5,11.9,5 M11.8,5C11.7,5,11.7,5,11.8,5C11.7,5,11.8,5,11.8,5 C11.8,5,11.8,5,11.8,5 M11.7,5.1C11.7,5.1,11.7,5.1,11.7,5.1C11.7,5.1,11.7,5.1,11.7,5.1C11.7,5.1,11.7,5.1,11.7,5.1 C11.7,5.1,11.7,5.1,11.7,5.1C11.7,5.1,11.7,5.1,11.7,5.1C11.7,5.1,11.7,5.1,11.7,5.1 M25.9,35.9C25.8,35.9,25.8,35.9,25.9,35.9 C25.8,35.9,25.8,35.9,25.9,35.9 M26.4,25.3c-0.2,0.4-0.4,0.8-0.6,1.3c-0.2,0.4-0.3,0.9-0.5,1.3c-0.2,0.5-0.2,1-0.3,1.5 c-0.1,0.6-0.1,1.1-0.1,1.7c0,0.8,0,1.5,0.1,2.3c0.1,0.6,0.2,1.3,0.5,1.9c0.1,0.2,0.2,0.4,0.4,0.6c0,0,0.1,0.1,0.1,0.1c0,0,0,0,0,0 h0.1c0,0,0,0,0.1-0.1c0.2-0.2,0.3-0.4,0.4-0.7c0.3-0.7,0.5-1.5,0.6-2.2c0.1-1,0.1-2.1,0.1-3.1c0-1.2-0.1-2.4-0.1-3.6 c0-0.6-0.1-1.2-0.1-1.8C26.8,24.7,26.6,25,26.4,25.3 M37.5,53.6C37.5,53.6,37.6,53.6,37.5,53.6C37.6,53.6,37.5,53.6,37.5,53.6 M24.9,56.5c0,0-0.1-0.1-0.1-0.1C24.8,56.4,24.9,56.4,24.9,56.5 M17.4,3.4c-0.9,0.1-1.7,0.3-2.6,0.5C14.4,4,14,4.2,13.5,4.3 C13,4.5,12.4,4.8,11.9,5c-0.8,0.4-1.5,0.8-2.2,1.3C9.1,6.7,8.6,7.2,8,7.7c-0.5,0.5-0.9,1-1.3,1.6c-0.5,0.8-1,1.5-1.3,2.3 c-0.5,1.4-0.7,2.8-1,4.2c-0.2,1.2-0.3,2.5-0.3,3.7c0,1.4,0.1,2.8,0.3,4.2c0.1,0.8,0.3,1.7,0.5,2.5c0.2,1,0.5,1.9,0.7,2.8 C6,30.8,6.6,32.4,7.3,34c1.1,2.3,2.4,4.5,3.7,6.7c1.4,2.2,2.8,4.3,4.4,6.4c0.7,0.8,1.4,1.7,2.1,2.5c0.8,0.8,1.6,1.7,2.4,2.5 c1.6,1.6,3.4,3.1,5.1,4.5c0.5,0.4,1,0.8,1.5,1.2c0.2,0.1,0.4,0.3,0.6,0.4c0-0.5,0.3-1,0.6-1.4c0.5-0.6,1.1-1.1,1.7-1.6 c0.5-0.5,1-1.1,1.5-1.6c0.6-0.7,1.1-1.5,1.7-2.2c0.6-0.6,1.1-1.2,1.8-1.8c1.2-1.1,2.5-2.1,3.7-3.1c1.2-1.1,2.3-2.3,3.3-3.5 c1.1-1.3,2.2-2.6,3.3-3.9c1.4-1.8,2.9-3.5,4.3-5.3c0.8-1,1.5-2.1,2.2-3.2c0.4-0.6,0.8-1.3,1.1-1.9c0.3-0.5,0.5-1.1,0.8-1.7 c0.6-1.5,1.1-3,1.6-4.5c0.5-1.7,1-3.4,1.3-5.1c0.1-0.9,0.1-1.7,0-2.6c-0.1-0.7-0.3-1.4-0.5-2c-0.2-0.4-0.5-0.9-0.7-1.3 c-0.3-0.4-0.6-0.7-1-1c-0.4-0.3-0.8-0.5-1.3-0.7C51.7,9.3,51,9.1,50.3,9c-0.8-0.1-1.6-0.1-2.5,0c-0.3,0-0.6,0.1-1,0.1 c-0.3,0.1-0.6,0.1-1,0.2c-0.4,0.1-0.7,0.2-1.1,0.3c-0.7,0.2-1.3,0.4-2,0.7c-1.2,0.5-2.3,1.1-3.4,1.7c-0.7,0.4-1.3,0.9-2,1.3 c-0.5,0.3-0.9,0.7-1.4,1c-0.6,0.5-1.2,1-1.8,1.6c-0.7,0.6-1.3,1.2-2,1.9c-0.9,0.9-1.8,1.9-2.6,2.9c0,0.1,0,0.3,0,0.4 c0.2,1.7,0.3,3.5,0.4,5.2c0.1,1.7,0.1,3.4,0,5c0,0.9-0.1,1.8-0.3,2.7c-0.2,0.8-0.5,1.6-0.9,2.3c-0.2,0.4-0.5,0.7-0.8,1 c-0.4,0.4-0.8,0.6-1.3,0.7c-0.6,0.2-1.3,0-1.8-0.3c-0.8-0.5-1.2-1.6-1.5-2.5c-0.2-0.8-0.3-1.7-0.4-2.6c0-0.4,0-0.9-0.1-1.3 c0-0.4,0-0.8,0-1.2c0.1-0.9,0.2-1.8,0.4-2.7c0.2-0.9,0.6-1.7,0.9-2.6c0.3-0.7,0.7-1.5,1.1-2.2c0.4-0.7,0.8-1.3,1.2-1.9 c-0.1-0.5-0.1-1.1-0.2-1.6c-0.3-1.8-0.5-3.5-0.8-5.3c-0.2-0.9-0.3-1.8-0.5-2.7c-0.1-0.5-0.2-0.9-0.4-1.4c-0.1-0.4-0.3-0.8-0.5-1.3 c-0.5-1.1-1-2.2-1.7-3.1c-0.3-0.4-0.7-0.8-1.1-1.2c-0.2-0.1-0.4-0.3-0.7-0.4c-0.4-0.1-0.7-0.2-1.1-0.3c-0.3,0-0.5,0-0.8,0 C18.4,3.3,17.9,3.4,17.4,3.4 M28.4,60.3C28.4,60.3,28.4,60.3,28.4,60.3c-0.6,0.1-1.1-0.1-1.6-0.3c-0.8-0.3-1.6-0.7-2.3-1.1 c-1.5-0.9-3-1.9-4.4-3c-1.3-1-2.7-2.1-4-3.2c-1.2-1.1-2.4-2.3-3.5-3.6c-2.3-2.8-4.4-5.8-6.4-8.9c-0.5-0.7-0.9-1.4-1.3-2.1 C4.4,37.4,4,36.7,3.7,36C3.3,35,2.9,34,2.5,33c-0.3-0.8-0.6-1.5-0.8-2.3c-0.5-1.7-1-3.3-1.2-5.1c-0.1-1-0.3-2-0.4-3 C0,21.7,0,20.8,0,19.8c0-1.9,0.2-3.8,0.5-5.6c0.2-0.8,0.3-1.7,0.6-2.5c0.1-0.6,0.4-1.1,0.6-1.7c0.2-0.4,0.4-0.8,0.6-1.1 C2.5,8.5,2.8,8.1,3,7.7c0.6-0.8,1.3-1.6,2-2.4c0.6-0.7,1.3-1.3,2.1-1.8C7.7,3.1,8.3,2.6,9,2.3c0.5-0.2,1-0.5,1.5-0.7 C11.3,1.3,12,1,12.8,0.8c0.8-0.2,1.7-0.4,2.5-0.5c0.5-0.1,1.1-0.1,1.6-0.2c0.4,0,0.9,0,1.3-0.1c0.6,0,1.2,0.1,1.8,0.1 c0.5,0.1,1.1,0.2,1.6,0.4c1.2,0.5,2.2,1.2,3,2.2c0.4,0.5,0.8,1,1.1,1.6c0.2,0.4,0.4,0.8,0.7,1.3c0.8,1.6,1.4,3.2,1.7,4.9 c0.4,1.7,0.6,3.4,0.9,5.1c0.1,0.5,0.2,1.1,0.2,1.6c0.9-1,1.8-2,2.8-2.9c0.7-0.7,1.4-1.3,2.1-1.9c0.3-0.2,0.6-0.5,0.9-0.7 c0.4-0.3,0.8-0.6,1.2-0.9c0.8-0.6,1.6-1.1,2.4-1.7C39.2,8.8,40,8.4,40.7,8c1.6-0.8,3.3-1.4,5-1.8c1.3-0.3,2.7-0.4,4-0.4 c1.2,0,2.4,0.3,3.6,0.6c0.5,0.2,1.1,0.4,1.6,0.6c0.6,0.3,1.1,0.7,1.5,1.1c0.4,0.3,0.7,0.7,1,1.1c0.3,0.4,0.7,0.9,0.9,1.4 c0.6,1.1,0.9,2.2,1.1,3.4c0.1,0.6,0.2,1.3,0.3,1.9c0.1,0.9,0,1.8-0.1,2.6c-0.5,3.6-1.3,7.1-2.7,10.4c-1.4,3.2-3.5,6.1-5.6,8.9 c-2.1,2.9-4.3,5.7-6.5,8.5c-1,1.3-2,2.5-3.2,3.6c-1.3,1.2-2.7,2.2-4.1,3.2c0,0,0,0,0.1,0c-1.3,1-2.4,2.1-3.5,3.4 c-0.5,0.6-1,1.2-1.6,1.7c-0.7,0.7-1.5,1.2-2.3,1.7c-0.3,0.2-0.7,0.3-1.1,0.3C29,60.5,28.7,60.4,28.4,60.3" fill="#FF7F6F"/></g></svg>